<svg width="20" height="20" fill="none" xmlns="http://www.w3.org/2000/svg"><path d="M18 7h-2.5A1.5 1.5 0 0 1 14 5.5V2H6v16h12V7z" fill="#fff"/><path d="M18 6v-.29l-3-3V5.5a.5.5 0 0 0 .5.5H18z" fill="#fff"/><path opacity=".67" fill-rule="evenodd" clip-rule="evenodd" d="M18.71 5 15 1.29a1 1 0 0 0-.71-.29H6a1 1 0 0 0-1 1v16a1 1 0 0 0 1 1h12a1 1 0 0 0 1-1V5.71a1 1 0 0 0-.29-.71zm-.71.71V6h-2.5a.51.51 0 0 1-.5-.5V2.71l3 3zM6 2.2v15.6c0 .11.09.2.2.2h11.6a.2.2 0 0 0 .2-.2V7h-2.5A1.5 1.5 0 0 1 14 5.5V2H6.2a.2.2 0 0 0-.2.2z" fill="#605E5C"/><rect x="1" y="6" width="10" height="10" rx="1" fill="#038387"/><path d="M8 9H5v1h2.52v1H5v3h-.95V8H8v1z" fill="#fff"/><path d="M12 12v1h3.5a.5.5 0 0 1 0 1H12v1h3.5a1.5 1.5 0 0 0 0-3H12z" fill="#038387"/><path d="M12 8v1h3.5a.5.5 0 0 1 0 1H12v1h3.5a1.5 1.5 0 0 0 0-3H12z" fill="#1A9BA1"/></svg>