<svg width="20" height="20" fill="none" xmlns="http://www.w3.org/2000/svg"><path d="M16.5 3H6.11L3 6.11V16.5a.5.5 0 0 0 .5.5h10.39L17 13.89V3.5a.5.5 0 0 0-.5-.5z" fill="#fff"/><path opacity=".67" d="M16.5 2H5.69L2 5.69V16.5A1.5 1.5 0 0 0 3.5 18h10.81L18 14.31V3.5A1.5 1.5 0 0 0 16.5 2zm-13 15a.5.5 0 0 1-.5-.5V6.11L6.11 3H16.5a.5.5 0 0 1 .5.5v10.39L13.89 17H3.5z" fill="#605E5C"/><path d="M7.5 7h-2a.5.5 0 0 0 0 1h2a.5.5 0 0 0 0-1z" fill="#ECCF35"/><path d="M14.5 7h-5a.5.5 0 0 0 0 1h5a.5.5 0 0 0 0-1z" fill="#FED912"/><path d="M7.5 9h-2a.5.5 0 0 0 0 1h2a.5.5 0 0 0 0-1z" fill="#E25A01"/><path d="M14.5 9h-5a.5.5 0 0 0 0 1h5a.5.5 0 0 0 0-1z" fill="#F18C0A"/><path d="M7.5 11h-2a.5.5 0 0 0 0 1h2a.5.5 0 0 0 0-1z" fill="#BF3207"/><path d="M14.5 11h-5a.5.5 0 0 0 0 1h5a.5.5 0 0 0 0-1z" fill="#D83B01"/><path d="M7.5 13h-2a.5.5 0 0 0 0 1h2a.5.5 0 0 0 0-1z" fill="#773C6E"/><path d="M14.5 13h-5a.5.5 0 0 0 0 1h5a.5.5 0 0 0 0-1z" fill="#974B8B"/></svg>